<svg xmlns="http://www.w3.org/2000/svg" viewBox="0 0 960 620" role="img" aria-label="Minimal insurance vault shield illustration">
  <defs>
    <radialGradient id="shieldGlow" cx="50%" cy="50%" r="55%">
      <stop stop-color="#0B63FF" stop-opacity=".26"/>
      <stop offset="1" stop-color="#0B63FF" stop-opacity="0"/>
    </radialGradient>
    <filter id="glow" x="-45%" y="-45%" width="190%" height="190%">
      <feDropShadow dx="0" dy="0" stdDeviation="18" flood-color="#0B63FF" flood-opacity=".38"/>
    </filter>
  </defs>
  <rect width="960" height="620" fill="#000"/>
  <circle cx="480" cy="310" r="292" fill="url(#shieldGlow)"/>
  <path d="M156 404c92-76 150-64 222-132s152-62 228-118 124-62 198-26" fill="none" stroke="#fff" stroke-opacity=".11" stroke-width="20" stroke-linecap="round"/>
  <g transform="translate(330 74)" filter="url(#glow)">
    <path d="M150 0l150 54v142c0 112-58 190-150 242C58 386 0 308 0 196V54z" fill="#050505" stroke="#0B63FF" stroke-width="5"/>
    <path d="M150 54l94 34v96c0 72-34 126-94 164-60-38-94-92-94-164V88z" fill="none" stroke="#fff" stroke-opacity=".2" stroke-width="16"/>
    <circle cx="150" cy="198" r="58" fill="none" stroke="#0B63FF" stroke-width="14"/>
    <path d="M126 198l18 18 38-48" fill="none" stroke="#0B63FF" stroke-width="14" stroke-linecap="round" stroke-linejoin="round"/>
  </g>
  <g fill="#080808" stroke="#fff" stroke-opacity=".14">
    <rect x="114" y="440" width="168" height="78" rx="20"/>
    <rect x="678" y="440" width="168" height="78" rx="20"/>
  </g>
  <path d="M282 480h116M562 480h116" stroke="#fff" stroke-opacity=".18" stroke-width="8" stroke-linecap="round"/>
  <path d="M198 480h58M704 480h58" stroke="#0B63FF" stroke-width="9" stroke-linecap="round"/>
</svg>
